<?xml version="1.0" encoding="UTF-8" standalone="no"?>
<!-- Created with Inkscape (http://www.inkscape.org/) -->

<svg
   xmlns:dc="http://purl.org/dc/elements/1.1/"
   xmlns:cc="http://creativecommons.org/ns#"
   xmlns:rdf="http://www.w3.org/1999/02/22-rdf-syntax-ns#"
   xmlns:svg="http://www.w3.org/2000/svg"
   xmlns="http://www.w3.org/2000/svg"
   xmlns:sodipodi="http://sodipodi.sourceforge.net/DTD/sodipodi-0.dtd"
   xmlns:inkscape="http://www.inkscape.org/namespaces/inkscape"
   version="1.1"
   id="svg10"
   xml:space="preserve"
   width="81.906662"
   height="81.907997"
   viewBox="0 0 81.906662 81.907997"
   sodipodi:docname="s-1.svg"
   inkscape:version="0.92.1 r15371"><metadata
     id="metadata16"><rdf:RDF><cc:Work
         rdf:about=""><dc:format>image/svg+xml</dc:format><dc:type
           rdf:resource="http://purl.org/dc/dcmitype/StillImage" /><dc:title></dc:title></cc:Work></rdf:RDF></metadata><defs
     id="defs14"><clipPath
       clipPathUnits="userSpaceOnUse"
       id="clipPath26"><path
         d="M 0,62.362 H 62.362 V 0 H 0 Z"
         id="path24"
         inkscape:connector-curvature="0" /></clipPath><clipPath
       clipPathUnits="userSpaceOnUse"
       id="clipPath46"><path
         d="M 6.196,31.181 C 6.196,17.382 17.382,6.196 31.181,6.196 v 0 c 13.799,0 24.986,11.186 24.986,24.985 v 0 c 0,13.799 -11.187,24.986 -24.986,24.986 v 0 C 17.382,56.167 6.196,44.98 6.196,31.181"
         id="path44"
         inkscape:connector-curvature="0" /></clipPath></defs><sodipodi:namedview
     pagecolor="#ffffff"
     bordercolor="#666666"
     borderopacity="1"
     objecttolerance="10"
     gridtolerance="10"
     guidetolerance="10"
     inkscape:pageopacity="0"
     inkscape:pageshadow="2"
     inkscape:window-width="1920"
     inkscape:window-height="1017"
     id="namedview12"
     showgrid="false"
     fit-margin-top="0"
     fit-margin-left="0"
     fit-margin-right="0"
     fit-margin-bottom="0"
     inkscape:zoom="3.6057093"
     inkscape:cx="76.748712"
     inkscape:cy="13.404147"
     inkscape:window-x="-8"
     inkscape:window-y="-8"
     inkscape:window-maximized="1"
     inkscape:current-layer="g18" /><g
     id="g18"
     inkscape:groupmode="layer"
     inkscape:label="Icons"
     transform="matrix(1.3333333,0,0,-1.3333333,-0.62159998,82.528531)"><g
       id="g20"><g
         id="g22"
         clip-path="url(#clipPath26)"><g
           id="g28"
           transform="translate(31.1816,1.5292)"><path
             d="m 0,0 c -16.351,0 -29.652,13.302 -29.652,29.651 0,16.351 13.301,29.653 29.652,29.653 16.35,0 29.652,-13.302 29.652,-29.653 C 29.652,13.302 16.35,0 0,0"
             style="fill:#ef2f2b;fill-opacity:1;fill-rule:nonzero;stroke:none"
             id="path30"
             inkscape:connector-curvature="0" /></g><g
           id="g32"
           transform="translate(31.1812,61.8964)"><path
             d="m 0,0 c -16.937,0 -30.715,-13.779 -30.715,-30.715 0,-16.937 13.778,-30.716 30.715,-30.716 16.937,0 30.715,13.779 30.715,30.716 C 30.715,-13.779 16.937,0 0,0 m 0,-2.126 c 15.79,0 28.589,-12.8 28.589,-28.589 0,-15.79 -12.799,-28.59 -28.589,-28.59 -15.79,0 -28.589,12.8 -28.589,28.59 0,15.789 12.799,28.589 28.589,28.589"
             style="fill:#ef2f2b;fill-opacity:1;fill-rule:nonzero;stroke:none"
             id="path34"
             inkscape:connector-curvature="0" /></g><g
           id="g36"
           transform="translate(31.1812,6.1952)"><path
             d="M 0,0 V 0 C 13.799,0 24.986,11.187 24.986,24.986 24.986,38.785 13.799,49.972 0,49.972 -13.799,49.972 -24.986,38.785 -24.986,24.986 -24.986,11.187 -13.799,0 0,0"
             style="fill:#ef2f2b;fill-opacity:1;fill-rule:nonzero;stroke:none"
             id="path38"
             inkscape:connector-curvature="0" /></g></g></g><g
       id="g40"><g
         id="g42"
         clip-path="url(#clipPath46)"><g
           id="g48"
           transform="translate(6.4414,28.2265)"><path
             d="m 0,0 h 34.006 c 1,0 1.978,0.296 2.811,0.852 0.786,0.525 0.892,1.64 0.219,2.304 l -0.465,0.458 0.618,0.355 c 1.239,0.713 1.369,2.45 0.25,3.34 l -0.202,0.16 0.72,0.414 c 1.224,0.703 1.369,2.413 0.282,3.313 l -0.288,0.239 1.247,1.044 c 1.009,0.844 0.956,2.411 -0.106,3.187 -0.821,0.599 -1.812,0.922 -2.828,0.922 h -4.983 c 2.538,6.033 -3.814,12.713 -3.368,7.714 0.445,-4.998 -5.445,-8.125 -6.284,-8.377 H 3.193"
             style="fill:none;stroke:#f2f2f1;stroke-width:1.85800004;stroke-linecap:round;stroke-linejoin:round;stroke-miterlimit:10;stroke-dasharray:none;stroke-opacity:1"
             id="path50"
             inkscape:connector-curvature="0" /></g><g
           id="g52"
           transform="translate(55.5005,12.3544)"><path
             d="m 0,0 h -33.185 c -1,0 -1.979,0.296 -2.811,0.853 -0.786,0.524 -0.892,1.639 -0.218,2.303 l 0.464,0.458 -0.618,0.356 c -1.239,0.712 -1.369,2.449 -0.25,3.339 l 0.201,0.16 -0.719,0.414 c -1.224,0.704 -1.369,2.413 -0.281,3.314 l 0.287,0.238 -1.247,1.044 c -1.008,0.844 -0.956,2.412 0.106,3.187 0.821,0.599 1.812,0.922 2.829,0.922 h 4.982 c -2.538,6.033 3.814,12.713 3.369,7.715 -0.446,-4.999 5.444,-8.126 6.283,-8.378 H 5.13"
             style="fill:#f2f2f1;fill-opacity:1;fill-rule:nonzero;stroke:none"
             id="path54"
             inkscape:connector-curvature="0" /></g></g></g></g></svg>