<?xml version="1.0" encoding="UTF-8" standalone="no"?>
<!-- Created with Inkscape (http://www.inkscape.org/) -->

<svg
   xmlns:dc="http://purl.org/dc/elements/1.1/"
   xmlns:cc="http://creativecommons.org/ns#"
   xmlns:rdf="http://www.w3.org/1999/02/22-rdf-syntax-ns#"
   xmlns:svg="http://www.w3.org/2000/svg"
   xmlns="http://www.w3.org/2000/svg"
   xmlns:sodipodi="http://sodipodi.sourceforge.net/DTD/sodipodi-0.dtd"
   xmlns:inkscape="http://www.inkscape.org/namespaces/inkscape"
   version="1.1"
   id="svg56"
   xml:space="preserve"
   width="75.782661"
   height="91.134392"
   viewBox="0 0 75.782661 91.134391"
   sodipodi:docname="s-2.svg"
   inkscape:version="0.92.1 r15371"><metadata
     id="metadata62"><rdf:RDF><cc:Work
         rdf:about=""><dc:format>image/svg+xml</dc:format><dc:type
           rdf:resource="http://purl.org/dc/dcmitype/StillImage" /><dc:title></dc:title></cc:Work></rdf:RDF></metadata><defs
     id="defs60"><clipPath
       clipPathUnits="userSpaceOnUse"
       id="clipPath72"><path
         d="M 0,68.567 H 62.362 V 0 H 0 Z"
         id="path70"
         inkscape:connector-curvature="0" /></clipPath></defs><sodipodi:namedview
     pagecolor="#ffffff"
     bordercolor="#666666"
     borderopacity="1"
     objecttolerance="10"
     gridtolerance="10"
     guidetolerance="10"
     inkscape:pageopacity="0"
     inkscape:pageshadow="2"
     inkscape:window-width="1920"
     inkscape:window-height="1017"
     id="namedview58"
     showgrid="false"
     fit-margin-top="0"
     fit-margin-left="0"
     fit-margin-right="0"
     fit-margin-bottom="0"
     inkscape:zoom="2.5814091"
     inkscape:cx="37.318665"
     inkscape:cy="45.499199"
     inkscape:window-x="-8"
     inkscape:window-y="-8"
     inkscape:window-maximized="1"
     inkscape:current-layer="g64" /><g
     id="g64"
     inkscape:groupmode="layer"
     inkscape:label="Icons"
     transform="matrix(1.3333333,0,0,-1.3333333,-4.2561331,91.346658)"><g
       id="g66"><g
         id="g68"
         clip-path="url(#clipPath72)"><g
           id="g74"
           transform="translate(20.6736,5.8119)"><path
             d="m 0,0 h -10.977 c -2.027,0 -3.67,1.643 -3.67,3.67 v 30.626 c 0,0.974 0.387,1.907 1.075,2.595 L 8.342,58.806 c 1.433,1.433 3.758,1.433 5.19,0 L 35.447,36.891 c 0.688,-0.688 1.074,-1.621 1.074,-2.595 V 3.67 C 36.521,1.643 34.879,0 32.852,0 H 14.607 C 12.58,0 10.938,1.643 10.938,3.67 v 19.821"
             style="fill:none;stroke:#ef2f2b;stroke-width:5.66900015;stroke-linecap:butt;stroke-linejoin:miter;stroke-miterlimit:10;stroke-dasharray:none;stroke-opacity:1"
             id="path76"
             inkscape:connector-curvature="0" /></g><g
           id="g78"
           transform="translate(19.0193,11.4652)"><path
             d="M 0,0 9.791,-5.653 0,-11.306 Z"
             style="fill:#ef2f2b;fill-opacity:1;fill-rule:nonzero;stroke:none"
             id="path80"
             inkscape:connector-curvature="0" /></g><g
           id="g82"
           transform="translate(48.6639,29.3031)"><path
             d="m 0,0 c 0,-9.418 -7.635,-17.053 -17.053,-17.053 -9.418,0 -17.052,7.635 -17.052,17.053 0,9.418 7.634,17.053 17.052,17.053 C -7.635,17.053 0,9.418 0,0"
             style="fill:#ef2f2b;fill-opacity:1;fill-rule:nonzero;stroke:none"
             id="path84"
             inkscape:connector-curvature="0" /></g><g
           id="g86"
           transform="translate(31.6111,38.827)"><path
             d="M 0,0 V -12.626"
             style="fill:none;stroke:#ffffff;stroke-width:2.83500004;stroke-linecap:round;stroke-linejoin:round;stroke-miterlimit:10;stroke-dasharray:none;stroke-opacity:1"
             id="path88"
             inkscape:connector-curvature="0" /></g><g
           id="g90"
           transform="translate(25.993,37.5429)"><path
             d="m 0,0 c -2.629,-1.796 -4.356,-4.815 -4.356,-8.24 0,-5.509 4.465,-9.974 9.974,-9.974 5.509,0 9.975,4.465 9.975,9.974 0,3.425 -1.728,6.444 -4.357,8.24"
             style="fill:none;stroke:#ffffff;stroke-width:2.83500004;stroke-linecap:round;stroke-linejoin:round;stroke-miterlimit:10;stroke-dasharray:none;stroke-opacity:1"
             id="path92"
             inkscape:connector-curvature="0" /></g></g></g></g></svg>