<?xml version="1.0" encoding="UTF-8" standalone="no"?>
<!-- Created with Inkscape (http://www.inkscape.org/) -->

<svg
   xmlns:dc="http://purl.org/dc/elements/1.1/"
   xmlns:cc="http://creativecommons.org/ns#"
   xmlns:rdf="http://www.w3.org/1999/02/22-rdf-syntax-ns#"
   xmlns:svg="http://www.w3.org/2000/svg"
   xmlns="http://www.w3.org/2000/svg"
   xmlns:sodipodi="http://sodipodi.sourceforge.net/DTD/sodipodi-0.dtd"
   xmlns:inkscape="http://www.inkscape.org/namespaces/inkscape"
   version="1.1"
   id="svg94"
   xml:space="preserve"
   width="83.149597"
   height="83.149597"
   viewBox="0 0 83.149597 83.149597"
   sodipodi:docname="s-3.svg"
   inkscape:version="0.92.1 r15371"><metadata
     id="metadata100"><rdf:RDF><cc:Work
         rdf:about=""><dc:format>image/svg+xml</dc:format><dc:type
           rdf:resource="http://purl.org/dc/dcmitype/StillImage" /><dc:title></dc:title></cc:Work></rdf:RDF></metadata><defs
     id="defs98"><clipPath
       clipPathUnits="userSpaceOnUse"
       id="clipPath110"><path
         d="M 0,62.362 H 62.362 V 0 H 0 Z"
         id="path108"
         inkscape:connector-curvature="0" /></clipPath><clipPath
       clipPathUnits="userSpaceOnUse"
       id="clipPath122"><path
         d="m 2.591,31.181 c 0,-15.789 12.8,-28.589 28.59,-28.589 v 0 c 15.789,0 28.59,12.8 28.59,28.589 v 0 c 0,15.79 -12.801,28.59 -28.59,28.59 v 0 c -15.79,0 -28.59,-12.8 -28.59,-28.59"
         id="path120"
         inkscape:connector-curvature="0" /></clipPath><clipPath
       clipPathUnits="userSpaceOnUse"
       id="clipPath146"><path
         d="M 0,62.362 H 62.362 V 0 H 0 Z"
         id="path144"
         inkscape:connector-curvature="0" /></clipPath></defs><sodipodi:namedview
     pagecolor="#ffffff"
     bordercolor="#666666"
     borderopacity="1"
     objecttolerance="10"
     gridtolerance="10"
     guidetolerance="10"
     inkscape:pageopacity="0"
     inkscape:pageshadow="2"
     inkscape:window-width="1920"
     inkscape:window-height="1017"
     id="namedview96"
     showgrid="false"
     inkscape:zoom="2.8382579"
     inkscape:cx="41.574799"
     inkscape:cy="41.574799"
     inkscape:window-x="-8"
     inkscape:window-y="-8"
     inkscape:window-maximized="1"
     inkscape:current-layer="g102" /><g
     id="g102"
     inkscape:groupmode="layer"
     inkscape:label="Icons"
     transform="matrix(1.3333333,0,0,-1.3333333,0,83.1496)"><g
       id="g104"><g
         id="g106"
         clip-path="url(#clipPath110)"><g
           id="g112"
           transform="translate(59.7711,31.1811)"><path
             d="m 0,0 c 0,-15.79 -12.801,-28.589 -28.59,-28.589 -15.79,0 -28.59,12.799 -28.59,28.589 0,15.79 12.8,28.589 28.59,28.589 C -12.801,28.589 0,15.79 0,0"
             style="fill:#f1f2f1;fill-opacity:1;fill-rule:nonzero;stroke:none"
             id="path114"
             inkscape:connector-curvature="0" /></g></g></g><g
       id="g116"><g
         id="g118"
         clip-path="url(#clipPath122)"><g
           id="g124"
           transform="translate(36.3931,21.4872)"><path
             d="M 0,0 -11.872,40.181 H 11.871 Z"
             style="fill:#4297d6;fill-opacity:1;fill-rule:nonzero;stroke:none"
             id="path126"
             inkscape:connector-curvature="0" /></g><g
           id="g128"
           transform="translate(11.2164,4.91)"><path
             d="M 0,0 -6.307,6.306 39.93,52.542 46.236,46.236 Z"
             style="fill:#ef2f2b;fill-opacity:1;fill-rule:nonzero;stroke:none"
             id="path130"
             inkscape:connector-curvature="0" /></g><g
           id="g132"
           transform="translate(11.2164,4.91)"><path
             d="M 0,0 -6.307,6.306 39.93,52.542 46.236,46.236 Z"
             style="fill:none;stroke:#f1f2f1;stroke-width:2.12599993;stroke-linecap:butt;stroke-linejoin:miter;stroke-miterlimit:10;stroke-dasharray:none;stroke-opacity:1"
             id="path134"
             inkscape:connector-curvature="0" /></g><g
           id="g136"
           transform="translate(22.0543,34.373)"><path
             d="M 0,0 -7.296,25.397 H 7.295 Z"
             style="fill:#4297d6;fill-opacity:1;fill-rule:nonzero;stroke:none"
             id="path138"
             inkscape:connector-curvature="0" /></g></g></g><g
       id="g140"><g
         id="g142"
         clip-path="url(#clipPath146)"><g
           id="g148"
           transform="translate(59.7711,31.1811)"><path
             d="m 0,0 c 0,-15.79 -12.801,-28.589 -28.59,-28.589 -15.79,0 -28.59,12.799 -28.59,28.589 0,15.79 12.8,28.589 28.59,28.589 C -12.801,28.589 0,15.79 0,0 Z"
             style="fill:none;stroke:#ef2f2b;stroke-width:5.66900015;stroke-linecap:butt;stroke-linejoin:miter;stroke-miterlimit:10;stroke-dasharray:none;stroke-opacity:1"
             id="path150"
             inkscape:connector-curvature="0" /></g><g
           id="g152"
           transform="translate(40.4625,13.619)"><path
             d="m 0,0 c 0,-2.248 -1.822,-4.07 -4.069,-4.07 -2.248,0 -4.071,1.822 -4.071,4.07 0,2.248 1.823,4.07 4.071,4.07 C -1.822,4.07 0,2.248 0,0"
             style="fill:#4297d6;fill-opacity:1;fill-rule:nonzero;stroke:none"
             id="path154"
             inkscape:connector-curvature="0" /></g><g
           id="g156"
           transform="translate(32.3228,13.619)"><path
             d="m 0,0 c 0,3.239 4.07,6.079 4.07,6.079 0,0 4.07,-2.84 4.07,-6.079"
             style="fill:#4297d6;fill-opacity:1;fill-rule:nonzero;stroke:none"
             id="path158"
             inkscape:connector-curvature="0" /></g></g></g></g></svg>