<?xml version="1.0" encoding="UTF-8" standalone="no"?>
<!-- Created with Inkscape (http://www.inkscape.org/) -->

<svg
   xmlns:dc="http://purl.org/dc/elements/1.1/"
   xmlns:cc="http://creativecommons.org/ns#"
   xmlns:rdf="http://www.w3.org/1999/02/22-rdf-syntax-ns#"
   xmlns:svg="http://www.w3.org/2000/svg"
   xmlns="http://www.w3.org/2000/svg"
   xmlns:sodipodi="http://sodipodi.sourceforge.net/DTD/sodipodi-0.dtd"
   xmlns:inkscape="http://www.inkscape.org/namespaces/inkscape"
   version="1.1"
   id="svg3810"
   xml:space="preserve"
   width="1039.6227"
   height="235.40428"
   viewBox="0 0 1039.6227 235.40428"
   sodipodi:docname="logo.svg"
   inkscape:version="0.92.1 r15371"><metadata
     id="metadata3816"><rdf:RDF><cc:Work
         rdf:about=""><dc:format>image/svg+xml</dc:format><dc:type
           rdf:resource="http://purl.org/dc/dcmitype/StillImage" /><dc:title></dc:title></cc:Work></rdf:RDF></metadata><defs
     id="defs3814"><clipPath
       clipPathUnits="userSpaceOnUse"
       id="clipPath3826"><path
         d="M 0,566.927 H 1068.326 V 0 H 0 Z"
         id="path3824"
         inkscape:connector-curvature="0" /></clipPath><clipPath
       clipPathUnits="userSpaceOnUse"
       id="clipPath3878"><path
         d="M 144.305,211.079 H 422.624 V 401.127 H 144.305 Z"
         id="path3876"
         inkscape:connector-curvature="0" /></clipPath></defs><sodipodi:namedview
     pagecolor="#ffffff"
     bordercolor="#666666"
     borderopacity="1"
     objecttolerance="10"
     gridtolerance="10"
     guidetolerance="10"
     inkscape:pageopacity="0"
     inkscape:pageshadow="2"
     inkscape:window-width="1920"
     inkscape:window-height="1017"
     id="namedview3812"
     showgrid="false"
     inkscape:zoom="0.26677151"
     inkscape:cx="519.81331"
     inkscape:cy="96.513219"
     inkscape:window-x="-8"
     inkscape:window-y="-8"
     inkscape:window-maximized="1"
     inkscape:current-layer="g3818"
     fit-margin-top="0"
     fit-margin-left="0"
     fit-margin-right="0"
     fit-margin-bottom="0" /><g
     id="g3818"
     inkscape:groupmode="layer"
     inkscape:label="Logo"
     transform="matrix(1.3333333,0,0,-1.3333333,-192.40666,516.84241)"><g
       id="g3820"><g
         id="g3822"
         clip-path="url(#clipPath3826)"><g
           id="g3828"
           transform="translate(519.499,274.2382)"><path
             d="M 0,0 H -14.055 L 21.383,74.343 H 34.022 L 68.964,0 H 45.545 L 27.454,41.313 13.119,8.577 C 10.838,3.366 5.688,0 0,0"
             style="fill:#fc1e00;fill-opacity:1;fill-rule:nonzero;stroke:none"
             id="path3830"
             inkscape:connector-curvature="0" /></g><g
           id="g3832"
           transform="translate(902.21,274.2382)"><path
             d="M 0,0 V 40.889 L -32.937,4.691 C -35.655,1.703 -39.508,0 -43.548,0 h -6.742 v 74.343 h 21.811 V 33.455 L 4.457,69.652 c 2.719,2.988 6.572,4.691 10.612,4.691 h 6.743 V 0 Z M -85.229,0 V 40.889 L -118.166,4.691 C -120.885,1.703 -124.738,0 -128.778,0 h -6.743 v 74.343 h 21.812 V 33.455 l 32.937,36.197 c 2.718,2.988 6.571,4.691 10.611,4.691 h 6.742 V 0 Z M -255.05,0 V 40.889 L -287.986,4.691 C -290.705,1.703 -294.559,0 -298.599,0 h -6.741 v 74.343 h 21.811 V 33.455 l 32.936,36.197 c 2.719,2.988 6.572,4.691 10.612,4.691 h 6.742 V 0 Z"
             style="fill:#fc1e00;fill-opacity:1;fill-rule:nonzero;stroke:none"
             id="path3834"
             inkscape:connector-curvature="0" /></g><g
           id="g3836"
           transform="translate(731.75,303.7055)"><path
             d="m 0,0 h -27.84 v -29.467 h -21.81 v 74.343 h 21.81 V 19.161 L 0,19.288 V 44.876 H 21.811 V -29.467 H 0 Z"
             style="fill:#fc1e00;fill-opacity:1;fill-rule:nonzero;stroke:none"
             id="path3838"
             inkscape:connector-curvature="0" /></g><g
           id="g3840"
           transform="translate(527.4736,227.039)"><path
             d="m 0,0 c -1.501,2.319 -2.594,3.069 -4.98,3.069 h -5.453 v -18.552 h -11.596 v 47.748 h 11.596 V 14.257 h 5.384 c 2.389,0 3.48,0.819 4.98,3.069 L 6.62,32.265 h 13.027 c 0,0 -6.617,-13.754 -8.801,-18.349 C 9.153,10.354 6.752,9.481 5.866,8.869 6.821,8.323 8.78,7.761 10.913,3.41 c 2.313,-4.719 9.213,-18.893 9.213,-18.893 H 7.029 Z"
             style="fill:#000000;fill-opacity:1;fill-rule:nonzero;stroke:none"
             id="path3842"
             inkscape:connector-curvature="0" /></g><g
           id="g3844"
           transform="translate(562.7549,235.4296)"><path
             d="m 0,0 c 0,-8.253 5.594,-13.369 12.687,-13.369 7.164,0 12.756,5.116 12.756,13.369 0,8.186 -5.592,13.438 -12.756,13.438 C 5.594,13.438 0,8.186 0,0 m 37.039,0 c 0,-13.507 -10.913,-24.351 -24.352,-24.351 -13.438,0 -24.284,10.844 -24.284,24.351 0,13.438 10.846,24.353 24.284,24.353 13.439,0 24.352,-10.915 24.352,-24.353"
             style="fill:#000000;fill-opacity:1;fill-rule:nonzero;stroke:none"
             id="path3846"
             inkscape:connector-curvature="0" /></g><g
           id="g3848"
           transform="translate(645.4248,211.5556)"><path
             d="M 0,0 V 26.739 L -12.552,13.38 -25.034,26.739 V 0 h -11.597 v 47.748 h 6.96 L -12.552,29.391 4.639,47.748 h 6.957 V 0 Z"
             style="fill:#000000;fill-opacity:1;fill-rule:nonzero;stroke:none"
             id="path3850"
             inkscape:connector-curvature="0" /></g><g
           id="g3852"
           transform="translate(750.0723,235.4296)"><path
             d="m 0,0 c 0,-8.253 5.594,-13.369 12.687,-13.369 7.164,0 12.756,5.116 12.756,13.369 0,8.186 -5.592,13.438 -12.756,13.438 C 5.594,13.438 0,8.186 0,0 m 37.039,0 c 0,-13.507 -10.912,-24.351 -24.352,-24.351 -13.438,0 -24.284,10.844 -24.284,24.351 0,13.438 10.846,24.353 24.284,24.353 13.44,0 24.352,-10.915 24.352,-24.353"
             style="fill:#000000;fill-opacity:1;fill-rule:nonzero;stroke:none"
             id="path3854"
             inkscape:connector-curvature="0" /></g><g
           id="g3856"
           transform="translate(814.5361,232.6337)"><path
             d="m 0,0 c 4.911,0 9.551,2.319 9.551,7.845 0,5.252 -4.64,7.912 -9.551,7.912 H -5.387 V 0 Z m -0.886,26.67 c 13.983,0 21.418,-8.662 21.418,-18.825 0,-10.232 -7.435,-18.827 -21.418,-18.827 H -5.387 V -21.078 H -16.983 V 26.67 Z"
             style="fill:#000000;fill-opacity:1;fill-rule:nonzero;stroke:none"
             id="path3858"
             inkscape:connector-curvature="0" /></g><g
           id="g3860"
           transform="translate(866.1084,211.5556)"><path
             d="M 0,0 H -11.597 V 36.835 H -23.808 V 47.748 H 12.211 V 36.835 H 0 Z"
             style="fill:#000000;fill-opacity:1;fill-rule:nonzero;stroke:none"
             id="path3862"
             inkscape:connector-curvature="0" /></g><g
           id="g3864"
           transform="translate(710.6777,227.8202)"><path
             d="M 0,0 H -5.442 V 15.914 H 0 c 4.96,0 9.644,-2.618 9.644,-7.923 C 9.644,2.409 4.96,0 0,0 m -17.185,0 h -5.443 c -4.96,0 -9.643,2.409 -9.643,7.991 0,5.305 4.683,7.923 9.643,7.923 h 5.443 z m 16.289,27.006 h -4.546 v 4.477 h -0.029 -11.685 -0.029 v -4.477 h -4.547 c -14.123,0 -21.631,-8.75 -21.631,-19.015 0,-10.336 7.508,-19.015 21.631,-19.015 h 4.547 v -5.717 h 0.029 11.685 0.029 v 5.717 h 4.546 c 14.124,0 21.631,8.679 21.631,19.015 0,10.265 -7.507,19.015 -21.631,19.015"
             style="fill:#000000;fill-opacity:1;fill-rule:nonzero;stroke:none"
             id="path3866"
             inkscape:connector-curvature="0" /></g><g
           id="g3868"
           transform="translate(897.6914,229.1532)"><path
             d="M 0,0 H 6.959 L 3.479,9.277 Z M -6.48,-17.598 H -19.372 L 0.136,30.15 H 7.095 L 26.33,-17.598 H 13.438 l -2.456,6.617 H -4.024 Z"
             style="fill:#000000;fill-opacity:1;fill-rule:nonzero;stroke:none"
             id="path3870"
             inkscape:connector-curvature="0" /></g></g></g><g
       id="g3872"><g
         id="g3874"
         clip-path="url(#clipPath3878)"><g
           id="g3880"
           transform="translate(467.2334,272.9579)"><path
             d="M 0,0 H -367.538"
             style="fill:none;stroke:#ff0000;stroke-width:25.52799988;stroke-linecap:butt;stroke-linejoin:miter;stroke-miterlimit:10;stroke-dasharray:none;stroke-opacity:1"
             id="path3882"
             inkscape:connector-curvature="0" /></g><g
           id="g3884"
           transform="translate(467.2334,322.1186)"><path
             d="m 0,0 h -113.876 c -4.682,0 -9.18,1.818 -12.547,5.07 l -43.745,42.254 c -7.587,7.328 -19.615,7.328 -27.202,0 L -241.115,5.07 C -244.482,1.818 -248.98,0 -253.661,0 h -113.877"
             style="fill:none;stroke:#ff0000;stroke-width:25.52799988;stroke-linecap:butt;stroke-linejoin:miter;stroke-miterlimit:10;stroke-dasharray:none;stroke-opacity:1"
             id="path3886"
             inkscape:connector-curvature="0" /></g><path
           d="m 238.165,293.533 h 90.6 v -84.279 h -90.6 z"
           style="fill:#ffffff;fill-opacity:1;fill-rule:nonzero;stroke:none"
           id="path3888"
           inkscape:connector-curvature="0" /><g
           id="g3890"
           transform="translate(467.2334,223.7968)"><path
             d="M 0,0 H -367.538"
             style="fill:none;stroke:#ff0000;stroke-width:25.52799988;stroke-linecap:butt;stroke-linejoin:miter;stroke-miterlimit:10;stroke-dasharray:none;stroke-opacity:1"
             id="path3892"
             inkscape:connector-curvature="0" /></g></g></g></g></svg>